<svg width="22" height="22" viewBox="0 0 22 22" fill="none" xmlns="http://www.w3.org/2000/svg">
<path d="M7.33301 9.16667V6.41667C7.33301 4.39175 8.97476 2.75 10.9997 2.75C13.0246 2.75 14.6663 4.39175 14.6663 6.41667V9.16667" stroke="#A2A2A7" stroke-width="1.3" stroke-linecap="round" stroke-linejoin="round"/>
<path d="M15.583 19.2498H6.41634C5.40342 19.2498 4.58301 18.4294 4.58301 17.4165V10.9998C4.58301 9.98692 5.40342 9.1665 6.41634 9.1665H15.583C16.5959 9.1665 17.4163 9.98692 17.4163 10.9998V17.4165C17.4163 18.4294 16.5959 19.2498 15.583 19.2498Z" stroke="#A2A2A7" stroke-width="1.3" stroke-linecap="round" stroke-linejoin="round"/>
<path d="M8.2497 14.2461C8.24695 14.2461 8.24512 14.2479 8.24512 14.2507C8.24512 14.2534 8.24695 14.2553 8.2497 14.2553C8.25245 14.2553 8.25428 14.2534 8.25428 14.2507C8.25428 14.2479 8.25245 14.2461 8.2497 14.2461Z" stroke="#A2A2A7" stroke-width="1.5" stroke-linecap="round" stroke-linejoin="round"/>
<path d="M11.0046 14.2461C11.0018 14.2461 11 14.2479 11 14.2507C11 14.2534 11.0046 14.2553 11.0046 14.2553C11.0073 14.2553 11.0092 14.2534 11.0092 14.2507C11.0092 14.2479 11.0073 14.2461 11.0046 14.2461Z" stroke="#A2A2A7" stroke-width="1.5" stroke-linecap="round" stroke-linejoin="round"/>
<path d="M13.7497 14.2461C13.747 14.2461 13.7451 14.2479 13.7451 14.2507C13.7451 14.2534 13.747 14.2553 13.7497 14.2553C13.7525 14.2553 13.7543 14.2534 13.7543 14.2507C13.7543 14.2479 13.7525 14.2461 13.7497 14.2461Z" stroke="#A2A2A7" stroke-width="1.5" stroke-linecap="round" stroke-linejoin="round"/>
</svg>
