<svg width="22" height="22" viewBox="0 0 22 22" fill="none" xmlns="http://www.w3.org/2000/svg">
<g clip-path="url(#clip0_337_112)">
<path d="M9.33409 12.6688C8.41338 11.7481 8.41338 10.2542 9.33409 9.33165C10.2548 8.41093 11.7487 8.41093 12.6712 9.33165C13.5919 10.2524 13.5919 11.7462 12.6712 12.6688C11.7487 13.5913 10.2557 13.5913 9.33409 12.6688Z" stroke="#A2A2A7" stroke-width="1.3" stroke-linecap="round" stroke-linejoin="round"/>
<path d="M18.3388 11.0023C18.3388 11.5204 18.215 12.0331 17.9756 12.5053C16.7404 14.9392 14.0112 16.5046 11.0024 16.5046C7.99357 16.5046 5.26443 14.9392 4.02917 12.5053C3.78982 12.0331 3.66602 11.5204 3.66602 11.0023C3.66602 10.4842 3.78982 9.97153 4.02917 9.49925C5.26443 7.0654 7.99357 5.5 11.0024 5.5C14.0112 5.5 16.7404 7.0654 17.9756 9.49925C18.215 9.97153 18.3388 10.4842 18.3388 11.0023Z" stroke="#A2A2A7" stroke-width="1.3" stroke-linecap="round" stroke-linejoin="round"/>
</g>
<path d="M6.5 18L15.4994 4.00007" stroke="#A2A2A7" stroke-linecap="round"/>
<defs>
<clipPath id="clip0_337_112">
<rect width="22" height="22" fill="white"/>
</clipPath>
</defs>
</svg>
